<svg xmlns="http://www.w3.org/2000/svg" width="463.4" height="463.4" viewBox="0 0 463.4 463.4" class="u-overflowVisible">
  <g class="trinket" style="--trinklet: 0;"><!-- Lady Liberty -->
    <g class="trinket__nofill">
      <path d="M50.8 176.8l4.6-1.4 4.4-4.9"/>
      <path d="M51.4 187.3l6.3-4.2 2.8-6.3-.7-6.3m13 7.6l-5.1 11-12.1 14.7M56.7 207.3l7.7-9.9 3.3-8.3m5.1-4.1l-10 37.7m3.5-2.5l6.5-8.7"/>
      <path d="M72.8 230.8l11-5.9-7.1-41.3-3.9-5.5-7.2-1.8-5.8-5.8-.5-3.9-1.9-2.3-.7 5-4.2 1.2-.7-4.3-2.3 3-.8 5.5 2.1 2.1 1.3 7.5-.7 3 3.2 3.3v3.6l-2 5.1.7 4.5h2.3l1.1 3.5-3.5 3.6 2.2 7.1-2 11.4 12.9-9.2-6.7 22.5L76 234l-3.2-3.2v-52.7m-26.2 74.3h40.8v4.4H46.6v-4.4z"/>
      <path d="M42.4 256.7h49.2v6.1H42.4v-6.1zM41 296.1h52.1v6.3H41v-6.3zm40.9-70.2v26.5M74.1 235v17.4m-7.9-13.2v13.2m-10.9-24.3l-5.5 24.3m9.8-9.7l-3 9.7m-4.8-86.2l.7-21.1h3.4l1.5 19.2m-2.8 29.9l13.1-12.1 2.4-4.7-.5-5.6m-5.6 2.9l.3-2.9"/>
      <path d="M67 162.1s-.6 3.2-3.5 3.2c-.4.8-.7 1.7-.7 2.7 0 2.7 1.9 5 4.2 5s4.2-2.2 4.2-5c0-1-.2-1.9-.7-2.7-2.9 0-3.5-3.2-3.5-3.2m-5.3 4.6l-.4 5.3"/>
      <path d="M71 169.2l1.2 3.5-2.4 1.2m1.8-.9l1.2 5.1m-.2-11.9s-1.4-4.1-5.6-4.1-5.6 4.1-5.6 4.1"/>
      <path d="M71.2 168l1.4-1.8.9-1.1s-1.5-4.8-6.5-4.8-6.5 4.8-6.5 4.8l.9 1.1 1.4 1.8m4.2-7.7v1.8m2.1-1.5l-.3 1.8m2.3-.7l-.6 1.6m2.1 0l-.8 1.4m-7-4.1l.3 1.8m-2.2-.7l.5 1.6m-2 0l.8 1.4M81.2 190.2l-3.6-1.6m-26.2-51.4l-2.6-1v-2.7h9v2.7l-2.6 1m-3.8 0h3.8v2.2l-.7-.1v4.7l.7.2v.9h-3.8v-1.3h1.9v-4.7h-1.9v-1.9z"/>
      <path d="M51.3 139.1h2v4.6h-2c-.5 0-.9-.4-.9-.9V140c0-.4.4-.9.9-.9zm3.2.2l.9.1c.3 0 .6.2.7.5l.5 1.2c.1.3.1.6.1.9l-.5 1.6c-.2.5-.7.8-1.2.6l-.5-.2v-4.7zm-1.2-9.1l-.8-2.2 1.5-4.1 2.6 5.6-1.7 2.7h-3.3l-1.6-2.7 2.1-4.2 1 1.1m1.8 5.8v1.3h-3.3v-1.3m-5 130.7h40.8v33.2H46.6v-33.2zm40.9-64l-1.8 3.1 3.1-1.9 2.1-3.2c.5-.8.3-1.9-.5-2.4l-.2-.1"/>
    </g>
    <path class="trinket__roundstroke" d="M67.7 160.3l-.7-9.6-.7 9.6m-2.1.6l-3.7-5.5 2.5 6.2m-1.9 2.2l-4-2.3.1.6 3.3 3m9.2-4.2l3.8-5.5-2.6 6.2m2 2.2l5.4-3.2-4.8 4.5"/>
    <path class="trinket__fill" d="M90.2 194.2l-1.9-1.3c-.4-.3-.9-.1-1.2.3l-1.8 3.2c-.2.4-.1.9.3 1.1l2 1.4-4.3 7.4-3-1.7-1.7-9.8 4.8-8.3 8.5 4.9-1.7 2.8z"/>
  </g>

  <g class="trinket" style="--trinklet: 1;"><!-- Headphone -->
    <g class="trinket__nofill">
      <path d="M155.1 158.1c-2.1 3.2-4.3 6.8-6 10.3m8.7-8.6c-1 1.6-1.8 2.7-2.8 4.4-.1.1-.1.2-.1.4l-.4 6.2"/>
      <circle cx="149.2" cy="175.6" r="7.2"/>
      <circle cx="149.2" cy="175.6" r="5.1"/>
      <path d="M147.7 182.6l-.3 7.6 2.3 18c.3 2.2 2.4 3.7 4.5 3.2 1.9-.4 3.2-2.2 2.9-4.1l-2.4-18.7-2.3-6.6"/>
      <path d="M148.5 199.3c-4.3 5.3-7.2 10.3-7.2 10.3s-6.5 11.3-8.4 22c-.1.5.1 1.1.4 1.5l.9 1s-.7 1.3.1 1.9c.7.6 4.8 4 4.8 4s1.7 1.4 1.6 4.7l2.3 1.3s4.8-11.2 14.2-27.3c9.3-16.2 16.6-26 16.6-26l-2.3-1.3c-2.8 1.7-4.8 1-4.8 1s-5-1.8-5.9-2.2c-.9-.3-1.7.9-1.7.9l-1.3-.3c-.5-.1-1.1 0-1.5.4-.4.3-.7.6-1 .9"/>
      <path d="M140.6 242.6s7.7-15.8 13.4-25.8c5.8-10 15.6-24.5 15.6-24.5m-26.1 52.8s.8 3.6 3.6 5.2c4.9 2.9 9.3-4 21.4-25s15.9-28.2 11-31.1c-2.8-1.6-6.2-.5-6.2-.5m67.6-52.4c25.6 14.8 45.9 52.2 30.9 81.6-.6 1.2-2.1 1.6-3.3.9l-3.1-1.8c-.8-.5-1.2-1.5-.7-2.3 14.2-26.8-3.6-60.7-26.4-73.9-22.8-13.1-61-11.6-77.2 14.1-.5.8-1.5 1-2.4.5l-3.1-1.8c-1.2-.7-1.6-2.2-.9-3.3 18.1-27.7 60.7-28.8 86.2-14z"/>
      <path d="M269.3 224.1c-1.7 3.5-3.7 7.1-6 10.3m3.2-11.9c-.8 1.7-1.5 2.9-2.4 4.7l-.3.3-5.2 3.4"/>
      <circle cx="257.1" cy="237.9" r="7.2"/>
      <circle cx="257.1" cy="237.9" r="5.1"/>
      <path d="M249.9 238.3l-6.9 1.3-17.4 7.3c-1.8.8-2.7 2.8-2.1 4.6.7 2.1 3 3.2 5.1 2.3l16.7-7 6.4-4"/>
      <path d="M236.9 250.3c-2.5 6.4-5.3 11.3-5.3 11.3s-6.5 11.3-14.9 18.3c-.4.4-1 .5-1.5.4l-1.3-.3s-.8 1.3-1.7.9-5.9-2.2-5.9-2.2-2-.8-4.8 1l-2.3-1.3s7.2-9.8 16.6-26c9.3-16.2 14.2-27.3 14.2-27.3l2.3 1.3c-.1 3.3 1.6 4.7 1.6 4.7s4.1 3.4 4.8 4 .1 1.9.1 1.9l.9 1c.4.4.5 1 .4 1.5s-.2.9-.3 1.4"/>
      <path d="M203.4 278.9s9.8-14.5 15.6-24.5 13.4-25.8 13.4-25.8m-32.6 48.9s-3.5 1.1-6.2-.5c-4.9-2.9-1.2-10 11-31.1s16.5-27.9 21.4-25c2.8 1.6 3.6 5.2 3.6 5.2"/>
    </g>
    <path class="trinket__fill" d="M202.3 137.8l1 4c.5 2 2.3 3.4 4.3 3.4 5.5 0 16.9.9 27.2 6.9 10.3 5.9 16.7 15.3 19.5 20.1 1 1.8 3.1 2.6 5.1 2l3.9-1.2s-8.2-17.5-25-27.2-36-8-36-8z"/>
  </g>
  
  <g class="trinket" style="--trinklet: 2;"><!-- Keyboard -->
    <g class="trinket__nofill">
      <path d="M459.7 289L303.3 18.1c-1.4-2.4-4.5-3.2-6.9-1.8l-64.5 37.2c-2.4 1.4-3.2 4.5-1.8 6.9l156.4 270.8c1.4 2.4 4.5 3.2 6.9 1.8l64.5-37.2c2.3-1.4 3.2-4.5 1.8-6.8z"/>
      <path d="M291.6 35.2L439 290.6l-57 32.9L234.5 68.2l57.1-33z"/>
      <path d="M429.1 285l-47.9 27.6c-.8.5-1.1 1.5-.6 2.4l3.2 5.5c.5.8 1.5 1.1 2.4.6l47.9-27.6M285.6 109.1l-16.4 9.5c-.8.5-1.1 1.5-.6 2.4l3.2 5.5c.5.8 1.5 1.1 2.4.6L322 99.5m-41.5.8l-16.4 9.5c-.8.5-1.1 1.5-.6 2.4l3.2 5.5c.5.8 1.5 1.1 2.4.6l16.4-9.5m-10.1-17.3L259 101c-.8.5-1.1 1.5-.6 2.4l3.2 5.5c.5.8 1.5 1.1 2.4.6l16.4-9.5m21.4-35.5l-47.9 27.6c-.8.5-1.1 1.5-.6 2.4l3.2 5.5c.5.8 1.5 1.1 2.4.6l16.4-9.5m-10-17.3l-16.4 9.5c-.8.5-1.1 1.5-.6 2.4l3.2 5.5c.5.8 1.5 1.1 2.4.6l47.9-27.6m-41.6.8l-16.4 9.5c-.8.5-1.1 1.5-.6 2.4l3.2 5.5c.5.8 1.5 1.1 2.4.6l16.4-9.5m21.3-35.4l-47.8 27.6c-.8.5-1.1 1.5-.6 2.4l3.2 5.5c.5.8 1.5 1.1 2.4.6l16.3-9.5M321.3 170.9l-16.4 9.5c-.8.5-1.1 1.5-.6 2.4l3.2 5.5c.5.8 1.5 1.1 2.4.6l47.9-27.6m-41.6.8l-16.4 9.5c-.8.5-1.1 1.5-.6 2.4l3.2 5.5c.5.8 1.5 1.1 2.4.6l16.4-9.5m-10.1-17.4l-16.4 9.5c-.8.5-1.1 1.5-.6 2.4l3.2 5.5c.5.8 1.5 1.1 2.4.6l16.3-9.5m21.4-35.5l-47.9 27.6c-.8.5-1.1 1.5-.6 2.4l3.2 5.5c.5.8 1.5 1.1 2.4.6l16.4-9.5m-10-17.2l-16.4 9.5c-.8.5-1.1 1.5-.6 2.4l3.2 5.5c.5.8 1.5 1.1 2.4.6l47.9-27.6m-41.6.8l-16.4 9.5c-.8.5-1.1 1.5-.6 2.4l3.2 5.5c.5.8 1.5 1.1 2.4.6l16.4-9.5m21.4-35.5l-47.9 27.6c-.8.5-1.1 1.5-.6 2.4l3.2 5.5c.5.8 1.5 1.1 2.4.6l16.4-9.5m61.2 106.2l-16.4 9.5c-.8.5-1.1 1.5-.6 2.4l3.2 5.5c.5.8 1.5 1.1 2.4.6l47.9-27.6m-41.6.9l-16.4 9.5c-.8.5-1.1 1.5-.6 2.4l3.2 5.5c.5.8 1.5 1.1 2.4.6l16.4-9.5m-10.1-17.5l-16.4 9.5c-.8.5-1.1 1.5-.6 2.4l3.2 5.5c.5.8 1.5 1.1 2.4.6l16.4-9.5m21.4-35.3l-47.9 27.6c-.8.5-1.1 1.5-.6 2.4l3.2 5.5c.5.8 1.5 1.1 2.4.6l16.4-9.5m-10.1-17.3l-16.4 9.5c-.8.5-1.1 1.5-.6 2.4l3.2 5.5c.5.8 1.5 1.1 2.4.6l47.9-27.6m-41.6.8l-16.4 9.5c-.8.5-1.1 1.5-.6 2.4l3.2 5.5c.5.8 1.5 1.1 2.4.6l16.4-9.5m21.4-35.5l-47.9 27.6c-.8.5-1.1 1.5-.6 2.4l3.2 5.5c.5.8 1.5 1.1 2.4.6l16.4-9.5m61.2 106.2l-16.4 9.5c-.8.5-1.1 1.5-.6 2.4l3.2 5.5c.5.8 1.5 1.1 2.4.6l47.9-27.6m-41.6.7L371 295c-.8.5-1.1 1.5-.6 2.4l3.2 5.5c.5.8 1.5 1.1 2.4.6l16.4-9.5m-10-17.2l-16.4 9.5c-.8.5-1.1 1.5-.6 2.4l3.2 5.5c.5.8 1.5 1.1 2.4.6l16.4-9.5m21.3-35.5l-47.9 27.6c-.8.5-1.1 1.5-.6 2.4l3.2 5.5c.5.8 1.5 1.1 2.4.6l16.4-9.5m-10-17.4l-16.4 9.5c-.8.5-1.1 1.5-.6 2.4l3.2 5.5c.5.8 1.5 1.1 2.4.6l47.9-27.6m-41.6.8l-16.4 9.5c-.8.5-1.1 1.5-.6 2.4l3.2 5.5c.5.8 1.5 1.1 2.4.6l16.3-9.5m21.4-35.5l-47.9 27.6c-.8.5-1.1 1.5-.6 2.4l3.2 5.5c.5.8 1.5 1.1 2.4.6l16.4-9.5M286.6 38.2L434 293.5"/>
    </g>
    <g class="trinket__fill">
      <path d="M289.6 43.4l-30.7 17.7c-.4.2-.6.8-.3 1.2l2.3 4c.2.4.8.6 1.2.3l30.7-17.7m2.6 4.5l-30.7 17.7c-.4.2-.6.8-.3 1.2l2.3 4c.2.4.8.6 1.2.3L298.6 59m5.9 10.2l-30.7 17.7c-.4.2-.6.8-.3 1.2l2.3 4c.2.4.8.6 1.2.3l30.7-17.7m2.6 4.5l-30.7 17.7c-.4.2-.6.8-.3 1.2l2.3 4c.2.4.8.6 1.2.3l30.7-17.7m2.5 4.4l-30.7 17.7c-.4.2-.6.8-.3 1.2l2.3 4c.2.4.8.6 1.2.3l30.7-17.7m6.1 10.5l-30.7 17.7c-.4.2-.6.8-.3 1.2l2.3 4c.2.4.8.6 1.2.3l30.7-17.7m2.5 4.5l-30.7 17.7c-.4.2-.6.8-.3 1.2l2.3 4c.2.4.8.6 1.2.3l30.7-17.7m6 10.3l-30.7 17.8c-.4.2-.6.8-.3 1.2l2.3 4c.2.4.8.6 1.2.3l30.7-17.7m2.5 4.4l-30.7 17.7c-.4.2-.6.8-.3 1.2l2.3 4c.2.4.8.6 1.2.3l30.7-17.7m2.6 4.5L321 168.6c-.4.2-.6.8-.3 1.2l2.3 4c.2.4.8.6 1.2.3l30.7-17.7m6 10.5l-30.7 17.7c-.4.2-.6.8-.3 1.2l2.3 4c.2.4.8.6 1.2.3l30.7-17.7m2.5 4.5l-30.7 17.7c-.4.2-.6.8-.3 1.2l2.3 4c.2.4.8.6 1.2.3l30.7-17.7M375.8 192.8l-30.7 17.7c-.4.2-.6.8-.3 1.2l2.3 4c.2.4.8.6 1.2.3l30.7-17.7m2.5 4.3l-30.7 17.7c-.4.2-.6.8-.3 1.2l2.3 4c.2.4.8.6 1.2.3l30.7-17.7m2.6 4.5l-30.7 17.7c-.4.2-.6.8-.3 1.2l2.3 4c.2.4.8.6 1.2.3l30.7-17.7M396.5 228.6l-30.7 17.7c-.4.2-.6.8-.3 1.2l2.3 4c.2.4.8.6 1.2.3l30.7-17.7M402.3 238.6l-30.7 17.7c-.4.2-.6.8-.3 1.2l2.3 4c.2.4.8.6 1.2.3l30.7-17.7M411.4 254.4l-30.7 17.7c-.4.2-.6.8-.3 1.2l2.3 4c.2.4.8.6 1.2.3l30.7-17.7m2.6 4.5l-30.7 17.7c-.4.2-.6.8-.3 1.2l2.3 4c.2.4.8.6 1.2.3l30.7-17.7m2.5 4.5l-30.7 17.7c-.4.2-.6.8-.3 1.2l2.3 4c.2.4.8.6 1.2.3l30.7-17.7"/>
    </g>
  </g>

  <g class="trinket" style="--trinklet: 3;"><!-- DeLorean -->
    <g class="trinket__nofill">
      <path d="M18.6 365.4c0-1.2 2.1-1.1 2.1-2.3.5-7.2 2.4-14.9 3.4-19.3.5-2.2 2.1-4 4.2-4.8l7.5-2.2s21.4-5.7 50.4-11.9c29.3-6.3 50.4-10.1 55.9-10.1 8.8-.5 19.4-.8 31.9-.8h46.5c5.2 0 10.4 1 15.3 3l62.4 25.8s128.1 14.9 133.7 15.7c.4.1.7.3.8.6.8 2.1 5.3 14.5 5.3 14.5h1.9c.4 0 .8.4.8.8v9.3c0 .4-.3.7-.7.8l-.6.1v1.3c-2.3 2.4-11.3 5.7-13.5 6.5-.3.1-.5.4-.5.7v7c0 .3.1.5.4.7l3.8 2.4c.7.4.4 1.5-.4 1.5h-34.7c-2.3 0-4.3-1.8-4.4-4.1-.8-10.5-5.6-35.6-33.8-35.6-39.3 0-34.9 47.3-34.9 47.3H143.6s5.8-52.4-39.1-52.4c-37.7 0-37.6 35.3-37.1 44 .1.9-.8 1.6-1.7 1.3-25.3-8.9-40.1-16.8-43.7-18.8-.5-.3-.8-.8-.8-1.4v-1.3l-4.2-1.9c-.5-.2-.8-.7-.8-1.2v-12.7c0-.7.5-1.2 1.2-1.2h1.1l.1-1.3z"/>
      <path d="M130.6 341.9c-.5 2-2.3 3.3-4.3 3.3h-78c-1.4 0-2.5-1.3-2.2-2.7l.7-3.3c.2-1 .9-1.8 1.9-2.1 4.4-1.4 18.2-5.5 45.6-10.8 26.4-5.1 37.5-6.6 41.2-7 .7-.1 1.3.6 1.1 1.3l-6 21.3zm7.7 3.2l7.4.1c.7 0 1.3-.5 1.4-1.2l2.2-23.9c.1-.8-.6-1.5-1.4-1.5H143c-.6 0-1.1.4-1.3 1-.7 2.3-2.5 9-4.8 24 0 .7.6 1.5 1.4 1.5zm-102.5-8.3s-4.6 16.2-2.6 51.4m34.2 8.2s-29.1-5.5-46.2-12.7m11.8.1s-11.1-1.7-16.8-3.3m139.6-66.3s-2.6 14.5-2.6 30.8c0 12.9 26.9 41 39.1 52.5m-49 0H322m-43.6 0l19.8-54.7"/>
      <circle cx="356.6" cy="401.5" r="30.5"/>
      <circle cx="105.2" cy="398.7" r="33.3"/>
      <circle cx="105.2" cy="398.7" r="21.5"/>
      <circle cx="356.6" cy="401.5" r="20.6"/>
      <path d="M439.5 385.8l-50.1 9.7m31.6-38.4l-.6 16.2-1.5 16.5m20.6-5.3l-20.3 2.4"/>
      <circle cx="105.2" cy="398.7" r="8"/>
      <circle cx="356.6" cy="401.5" r="8.2"/>
      <path d="M356.6 393.3V381m-1.7 12.5l-2.6-12.1m.9 12.6l-5-11.3m3.5 12.2l-7.2-10m6 11.1l-9.2-8.2m8.2 9.6l-10.7-6.2m10 7.8l-11.8-3.8m11.4 5.5l-12.3-1.3m12.3 3l-12.3 1.3m12.7.4l-11.8 3.8m12.5-2.3l-10.7 6.2m11.7-4.8l-9.2 8.3m10.4-7.1l-7.2 10m8.7-9.2l-5 11.3m6.7-10.7l-2.6 12m4.3-11.8v12.3m1.7-12.5l2.6 12m-1-12.6l5 11.3m-3.5-12.1l7.3 10m-6-11.2l9.2 8.3m-8.2-9.7l10.7 6.2m-10-7.7l11.7 3.8m-11.3-5.5l12.2 1.3m-12.2-3l12.2-1.3m-12.6-.4l11.7-3.8m-12.4 2.2l10.7-6.2m-11.7 4.8l9.2-8.2m-10.5 7.1l7.3-10m-8.8 9.1l5-11.3m-6.6 10.8l2.6-12.1M105.2 390.8v-13.6m-1.6 13.7l-2.9-13.2m1.3 13.8l-5.5-12.4m4 13.2l-7.9-11m6.7 12.1l-10.1-9.1m9.1 10.5L86.6 388m11 8.3l-12.8-4.2m12.5 5.8l-13.5-1.4m13.5 3.1L83.8 401m13.8.2l-12.8 4.2m13.5-2.7l-11.7 6.8m12.7-5.4l-10.1 9m11.3-7.9l-7.9 10.9M102 406l-5.5 12.4m7.1-11.9l-2.9 13.3m4.5-13.1v13.5m1.7-13.7l2.8 13.3m-1.2-13.8l5.5 12.4m-4.1-13.2l8 10.9m-6.8-12l10.1 9m-9.1-10.4l11.7 6.8m-11-8.3l12.9 4.2m-12.6-5.8l13.5 1.4m-13.5-3.1l13.5-1.4m-13.8-.2l12.9-4.2m-13.6 2.7l11.7-6.8m-12.7 5.4l10.1-9.1m-11.3 8l8-11m-9.4 10.2l5.5-12.4m-7.1 11.8l2.8-13.2M57.3 367.3l22.7.3M18.6 366.7l18.1.2m93.2 1.6l205 3.4m81 1.3l22.1.3M378.1 372.6l16.3.2M247.2 347.3l-25-12.4c-3-1.5-6.4-2.3-9.8-2.3h-17.3c-2.8 0-5.5 1.4-7.2 3.7l-6.9 9.5"/>
      <path d="M264.9 347.7l-97.9-2.4c-2.6-.1-4.7-2.3-4.6-4.9l.7-18.8c.1-1.7 1.5-3.1 3.2-3.1h51.9c6 0 12 1.4 17.4 4l1.9.9 32.4 15.7m5.8 2.8l6 2.9c.3.1.5.5.5.8v1.7c0 .5-.4.9-.9.9l-5.6-.1"/>
      <path d="M268.7 349.8h7v-10.6h-7c-2.2 0-4 1.8-4 4v2.5c-.1 2.3 1.7 4.1 4 4.1zM181 369.3l13.4.2v3.2c0 .9-.7 1.5-1.6 1.5l-10.3-.2c-.8 0-1.5-.7-1.5-1.5v-3.2z"/>
    </g>
    <g class="trinket__fill">
      <path d="M37.4 366l19.2.3c.4 0 .7.3.7.7v1.7c0 .4-.3.7-.7.7l-19.2-.3c-.4 0-.7-.3-.7-.7v-1.7c0-.4.3-.7.7-.7zM395.1 371.8l20.1.3c.4 0 .7.3.7.7l-.1 1.3c0 .4-.3.6-.7.6l-20-.3c-.4 0-.7-.3-.7-.7v-1.3c0-.3.3-.6.7-.6z"/>
      <circle cx="356.6" cy="401.5" r="3"/>
      <circle cx="105.2" cy="398.7" r="3.1"/>
    </g>
  </g>

  <g class="trinket" style="--trinklet: 4;"><!-- Controller -->
    <g class="trinket__nofill">
      <path d="M78.3 73.9s-1.3-.9-1.6-.8c-.5.1-3.2.7-7.2 4.6-3.9 3.9-4.5 6.8-4.6 7.2-.1.5.9 1.7.9 1.7M138.4 13.8s-1.3-.9-1.6-.8c-.5.1-3.2.7-7.2 4.6-3.9 3.9-4.5 6.8-4.6 7.2-.1.5.9 1.7.9 1.7"/>
      <path d="M71.3 99.3L66 92.1s-3.5-4.6 4.6-12.6c8.1-8.1 12-5.7 12-5.7L93 79.9M169.5 22.7s34.3 24.6 37.3 27.6 9.8 14.2 1.1 22.9c-4.6 4.6-9 5-11.4 4.8-2.4-.2-38.6-8.2-38.6-8.2l-18.1 18.1-18.1 18.1s8.1 36.2 8.2 38.6-.3 6.9-4.8 11.4c-8.7 8.7-20 1.8-22.9-1.1-2.9-3-27.6-37.3-27.6-37.3M131.7 41l-6.1-10.4s-2.3-3.9 5.7-12C139.5 10.5 144 14 144 14l7.2 5.3"/>
      <path d="M120.2 105.8l1.6.1 18.2-18 18-18.1-.1-1.6M155.4 68.3l-17.5 17.5-17.6 17.6"/>
      <circle cx="95.6" cy="104.2" r="24.7"/>
      <circle cx="156.2" cy="43.6" r="24.7"/>
      <path d="M103.2 86.1L96 93.3c-.2.2-.7.2-.9 0l-7.3-7.2c-.2-.2-.7-.2-.9 0l-9.4 9.5c-.2.2-.2.7 0 .9l7.2 7.2c.2.2.2.7 0 .9l-7.2 7.2c-.2.2-.2.7 0 .9l9.4 9.4c.2.2.7.2.9 0L95 115c.2-.2.7-.2.9 0l7.2 7.2c.2.2.7.2.9 0l9.4-9.4c.2-.2.2-.7 0-.9l-7.2-7.2c-.2-.2-.2-.7 0-.9l7.2-7.2c.2-.2.2-.7 0-.9l-9.4-9.4c-.1-.4-.4-.4-.8-.2z"/>
      <path d="M94.1 97.4l-.3 3.4c-.1.9-.8 1.6-1.7 1.7l-3.4.3c-.3 0-.7-.1-1-.3l-4-4c-.5-.5-.5-1.3 0-1.7l4.3-4.3c.5-.5 1.3-.5 1.7 0l4 4c.3.2.4.5.4.9zM83.2 92l-.1 2.9 3-3.1-2.9.2zm5.5 13.7l3.4.3c.9.1 1.6.8 1.7 1.7l.3 3.4c0 .3-.1.7-.3 1l-4 4c-.5.5-1.3.5-1.7 0l-4.3-4.3c-.5-.5-.5-1.3 0-1.7l4-4c.1-.3.4-.4.9-.4zm-5.5 10.9l2.9.2-3-3.1.1 2.9zM97.1 111.2l.3-3.4c.1-.9.8-1.6 1.7-1.7l3.4-.3c.3 0 .7.1 1 .3l4 4c.5.5.5 1.3 0 1.7l-4.3 4.3c-.5.5-1.3.5-1.7 0l-4-4c-.3-.2-.4-.6-.4-.9zm10.8 5.4l.1-2.9-3 3.1 2.9-.2zM102.4 102.7l-3.4-.3c-.9-.1-1.6-.8-1.7-1.7l-.3-3.4c0-.3.1-.7.3-1l4-4c.5-.5 1.3-.5 1.7 0l4.3 4.3c.5.5.5 1.3 0 1.7l-4 4c-.1.4-.4.5-.9.4zm5.5-10.7l-2.9-.2 3 3.1-.1-2.9zM164 25.5l-7.2 7.2c-.2.2-.7.2-.9 0l-7.2-7.2c-.2-.2-.7-.2-.9 0l-9.4 9.4c-.2.2-.2.7 0 .9l7.2 7.2c.2.2.2.7 0 .9l-7.2 7.2c-.2.2-.2.7 0 .9l9.4 9.4c.2.2.7.2.9 0l7.2-7.2c.2-.2.7-.2.9 0l7.2 7.2c.2.2.7.2.9 0l9.4-9.4c.2-.2.2-.7 0-.9l-7.2-7.2c-.2-.2-.2-.7 0-.9l7.2-7.2c.2-.2.2-.7 0-.9l-9.4-9.4c-.2-.4-.7-.4-.9 0z"/>
      <circle cx="164.9" cy="34.9" r="5.5"/>
      <circle cx="164.9" cy="34.9" r="3.7"/>
      <circle cx="164.9" cy="52.3" r="5.5"/>
      <path d="M169.2 52.3h-8.5m4.2 4.2V48M147.6 47.9l4.2 4.2-4.2 4.2-4.2-4.2 4.2-4.2z"/>
      <circle cx="147.6" cy="52.3" r="5.5"/>
      <circle cx="147.6" cy="34.9" r="5.5"/>
      <path d="M146.6 38.6l-1.7-6.5 6.5 1.7-4.8 4.8zM168.9 52.3h-8M93.1 79.7l-1.8-1.1 16.4-16.4c.1-.1.2-.1.3-.1l.5-.1c.1 0 .2-.1.3-.1l2.7-2.7 2.7-2.7c.1-.1.1-.2.1-.3l.1-.5c0-.1.1-.2.1-.3L130.8 39l1.1 1.8-38.8 38.9"/>
    </g>
    <g class="trinket__fill">
      <path d="M126.4 85.3l-2.7 2.7c-.7.7-1.7.7-2.3 0l-.7-.7c-.7-.7-.7-1.7 0-2.3l2.7-2.7c.7-.7 1.7-.7 2.3 0l.7.7c.6.7.6 1.8 0 2.3zM138.7 69.7c.3-.1.7.1.5.5l-2.9 5.5c-.1.2-.3.2-.6.1l-2.6-2.6c-.1-.1-.1-.5.1-.6l5.5-2.9z"/>
    </g>
  </g>
</svg>