<svg xmlns="http://www.w3.org/2000/svg" viewBox="0 0 180.5 86" width="180.5px" height="86px" class="{{ ckn_logo_classes }}" focusable="false">
	<title>Christopher Kirk-Nielsen</title>
	<def>
		<path id="ckn-logo-c" d="M63.3 34.5l6.7-6.7c.4-.4.6-.9.6-1.4v-11c0-2.2-1.8-3.9-3.9-3.9H35.1c-13 0-23.6 10.6-23.6 23.6v15.7c0 13 10.6 23.6 23.6 23.6h31.5c2.2 0 3.9-1.8 3.9-3.9v-11c0-.5-.2-1-.6-1.4l-6.7-6.7c-.4-.4-.9-.6-1.4-.6h-5.1c-1.1 0-2 .9-2 2v5.9H35.1c-4.3 0-7.9-3.5-7.9-7.9V35.1c0-4.3 3.5-7.9 7.9-7.9h19.7v5.9c0 1.1.9 2 2 2h5.1c.5 0 1-.2 1.4-.6z" />
		<path id="ckn-logo-k" d="M89.8 73.3l-29-29c-.8-.8-.8-2 0-2.8l29-29c.7-.7 1.7-1.2 2.8-1.2h15.9c1.8 0 2.6 2.1 1.4 3.4L81.7 43l28.1 28.1c1.2 1.2.4 3.4-1.4 3.4H92.5c-1 0-2-.4-2.7-1.2z" />
		<path id="ckn-logo-n" d="M169 72.5V35.1c0-13-10.6-23.6-23.6-23.6h-27.6c-2.2 0-3.9 1.8-3.9 3.9v57.1c0 1.1.9 2 2 2h11.8c1.1 0 2-.9 2-2V27.3h15.7c4.3 0 7.9 3.5 7.9 7.9v37.4c0 1.1.9 2 2 2H167c1.1-.1 2-1 2-2.1z" />
	</def>

	<g id="ckn-logo" class="{{ ckn_logo_fill_classes }}">
		<use xlink:href="#ckn-logo-c"/>
		<use xlink:href="#ckn-logo-k"/>
		<use xlink:href="#ckn-logo-n"/>
	</g>

	<use xlink:href="#ckn-logo-c" class="{{ ckn_logo_stroke_classes }}--c"/>
	<use xlink:href="#ckn-logo-k" class="{{ ckn_logo_stroke_classes }}--k"/>
	<use xlink:href="#ckn-logo-n" class="{{ ckn_logo_stroke_classes }}--n"/>
</svg>