<svg xmlns="http://www.w3.org/2000/svg" width="199.8" height="545.1" viewBox="0 0 199.8 545.1">
	<defs>
		<!-- This seems required to ensure the strokes properly fill up the masks -->
		<rect id="ckn-profile-filler-fixer" x="0" y="0" width="100%" height="100%" fill="transparent"></rect>
		<mask id="ckn-profile-hair-beard">
			<path fill="#fff"
				d="M198.8 545.1c-11.2 0-43.3-.9-67.2-21.3-28.7-24.4-54.7-38.1-70.4-64.2-14.8-24.7-27-53-29.6-74-8.4-67.2-3.7-107.6-2.5-116 .1-.6.9-.7 1.2-.2 2 3.4 6.7 12.8 9 29.4 2.9 21.3 11 60.8 17.6 73.3s19.8 3.7 38.1 34.4 20.5 49 42.5 55.6 57.9 9.4 61.4 9.4v73.6z" />
		</mask>
		<mask id="ckn-profile-hair-goatee">
			<path fill="#fff"
				d="M198.8 460.8s-9.4-8.2-20.2-19.3c-10.7-11.1-22.6-21.3-19-30.8 3.6-9.4 9.6-12.7 39.2-12.7v62.8z" />
		</mask>
		<mask id="ckn-profile-hair-moustache">
			<path fill="#fff"
				d="M194 332c2.1-.2 4.1 1.4 4.3 3.5.3 3 .5 7.5-.5 11.9-1.1 5-4.2 9.8-7.8 12.1-8.9 5.6-13.2 8.8-35.3 11.4-7.5.9-30.7 5-37.7 9.1-4.2 2.5-8.4 9.3-11 14.3-1 1.9-3.9 1.3-4.4-.8-1.5-7.3-2.9-19.4 1.7-27.7C109.9 353.7 174 334 194 332z" />
		</mask>
		<mask id="ckn-profile-hair-brow">
			<path fill="#fff"
				d="M171.8 200.6v2.1c0 2-1.7 3.5-3.7 3.2-14.4-2.1-65.6-9.5-74.2-9.4-8.5.1-22 5.4-30.6 14.1-1.2 1.2-3.2 0-2.8-1.6 2.9-11.3 10.9-25.6 27.9-27.6 16.6-2 52.8 1.2 71.4 4.8 6.9 1.4 11.9 7.4 12 14.4z" />
		</mask>
	</defs>

	<g class="about__profile-path">
		<path pathlength="1"
			d="M198.8 1c-141.7 0-176 135-176 181s12.2 43 7.8 86 1.1 115 21 162 52 56 84.2 77 41 18 63.1 18" />
		<path pathlength="1"
			d="M31.4 248.2c-2.1-4.4-4.4-6.8-10.2-6.8C10.8 241.3 1 255.3 1 268c0 12.7 7.8 41.7 13.7 59 5.9 17.3 7.1 37.6 19.5 37.6" />
		<path pathlength="1"
			stroke-linecap="round"
			d="M198.8 327.3c-10.4 0-11.2-4.8-19.4-4.8s-11.5 3.5-19.8 3.5c-5.3 0-9.3-6.4-9.2-12.8" />
	</g>

	<g class="about__profile-hair">
		<g mask="url(#ckn-profile-hair-beard)">
			<use xlink:href="#ckn-profile-filler-fixer"/>
			<path pathlength="1"
				stroke-width="75"
				d="M30.5056,268c-4.4293,43,10.66,105.4475,30.5915,152.4475s49.5771,58.07,82.5324,77.7205c16.9764,10.1226,33.0417,10.2607,55.188,10.2607" />
			<path pathlength="1"
				stroke-width="42"
				d="M198.5369,493.1191s-26.74,0-67.4526-18.0452c-53.29-23.62-33.0467-60.3264-81.3866-84.8217" />
		</g>

		<path mask="url(#ckn-profile-hair-moustache)"
			pathlength="1"
			stroke-width="42"
			d="M199.4043,339.3725S128.2517,357.475,114.2731,368.2s-10.1461,32.2477-10.1461,32.2477" />

		<g mask="url(#ckn-profile-hair-goatee)">
			<use xlink:href="#ckn-profile-filler-fixer"/>
			<path pathlength="1"
				stroke-width="42"
				d="M198.8172,460.7575s-19.5924-24.1533-19.5924-43.7929a22.4567,22.4567,0,0,1,10.592-18.96" />
		</g>

		<g class="about__profile-hair--brow" mask="url(#ckn-profile-hair-brow)">
			<use xlink:href="#ckn-profile-filler-fixer"/>
			<path pathlength="1"
				stroke-width="21"
				d="M174.7964,201.6334s-29.9984-12.0759-64.0105-12.0759c-50.3688,0-51.767,27.2551-51.767,27.2551" />
		</g>
	</g>

	<path class="about__profile-glasses"
		d="M198.9 209.1h-16s-28.9-9.2-69-9.2S62.2 214 62.2 214H46.8c-.7 0-1.3.4-1.6 1l-19 26.3 3 2.4 2.2 3.8L47.7 237h6.9s1.7 14.7 7.4 30.3c4.2 11.6 8.9 24.3 25.2 24.3 16.3 0 66.2 2.6 76.5-10.4 12.7-16 18.8-41.8 21.7-52.9 0 0 3.3-6.8 13.3-6.8m-138 5.3c4.8-12.3 15.6-21.1 56.2-21.1 23.5 0 59.2 3.4 60.9 12.7s-5.5 53.6-22 61.9c-16.5 8.3-41.2 7-62.9 7-17.4 0-21.5-5.1-26.8-19.7s-8.5-32.8-5.4-40.8z" />
</svg>