<svg xmlns="http://www.w3.org/2000/svg" xmlns:xlink="http://www.w3.org/1999/xlink" viewBox="0 0 159 64.8" class="{{ ckn_logo_classes }}" focusable="false">
	<defs>
		<path id="ckn-logo-c" d="M52.6 23.9l6.7-6.7c.4-.4.6-.9.6-1.4v-11c0-2.2-1.8-3.9-3.9-3.9H24.4C11.4.9.8 11.5.8 24.5v15.7c0 13 10.6 23.6 23.6 23.6h31.5c2.2 0 3.9-1.8 3.9-3.9v-11c0-.5-.2-1-.6-1.4l-6.7-6.7c-.4-.4-.9-.6-1.4-.6H46c-1.1 0-2 .9-2 2v5.9H24.4c-4.3 0-7.9-3.5-7.9-7.9V24.5c0-4.3 3.5-7.9 7.9-7.9h19.7v5.9c0 1.1.9 2 2 2h5.1c.5 0 1-.2 1.4-.6z"/>
		<path id="ckn-logo-k" d="M79.1 62.8l-29-29c-.8-.8-.8-2 0-2.8l29-29c.7-.7 1.7-1.2 2.8-1.2h15.9c1.8 0 2.6 2.1 1.4 3.4L70.9 32.4 99 60.5c1.2 1.2.4 3.4-1.4 3.4H81.8c-1 0-2-.4-2.7-1.1z"/>
		<path id="ckn-logo-n" d="M158.2 61.9V24.5c0-13-10.6-23.6-23.6-23.6H107c-2.2 0-3.9 1.8-3.9 3.9v57.1c0 1.1.9 2 2 2h11.8c1.1 0 2-.9 2-2V16.7h15.7c4.3 0 7.9 3.5 7.9 7.9V62c0 1.1.9 2 2 2h11.7c1.2 0 2-.9 2-2.1z"/>
	</defs>

	<g id="ckn-logo" class="{{ ckn_logo_fill_classes }}">
		<use xlink:href="#ckn-logo-c"/>
		<use xlink:href="#ckn-logo-k"/>
		<use xlink:href="#ckn-logo-n"/>
	</g>

	<use xlink:href="#ckn-logo-c" class="{{ ckn_logo_stroke_classes }}--c"/>
	<use xlink:href="#ckn-logo-k" class="{{ ckn_logo_stroke_classes }}--k"/>
	<use xlink:href="#ckn-logo-n" class="{{ ckn_logo_stroke_classes }}--n"/>
</svg>