<svg xmlns="http://www.w3.org/2000/svg" width="690" height="216.8" viewBox="0 0 690 216.8" data-viewbox-expansion="-110.3 -294.5" class="about__trinket about__delorean" aria-label="DeLorean from Back to the Future, side view">
	<g class="about__trinket-stroke">
		<path d="M687.1 139.1v.7c0 .6-.5 1.2-1.1 1.2l-.9.1v2.1c-3.7 3.7-17.9 9-21.5 10.3-.5.2-.8.6-.8 1.2v11.1c0 .4.2.8.6 1l6 3.9c1.1.7.6 2.4-.7 2.4h-55.1c-3.7 0-6.8-2.9-7-6.6-1.3-16.7-9-56.5-53.7-56.5-62.3 0-55.4 75.2-55.4 75.2H215s9.2-83.2-62.1-83.2C93 102 93.1 158 94 171.9c.1 1.4-1.3 2.5-2.7 2-10.9-3.8-20.6-7.6-29-11M227.3 29.7c10.7-.4 22.7-.7 36.1-.7h73.9c8.3 0 16.6 1.6 24.3 4.8l99.1 41S664.2 98.4 673 99.7c.6.1 1.1.5 1.3 1 1.3 3.3 8.5 23 8.5 23h3.1c.7 0 1.2.6 1.2 1.2v2M50.5 158c-15.5-6.8-25.1-11.9-28.4-13.7-.8-.5-1.3-1.3-1.3-2.2V140l-6.7-3.1c-.8-.3-1.3-1.1-1.3-1.9v-20.2c0-1.1.9-1.9 1.9-1.9h1.8v-2c0-1.8 3.3-1.7 3.4-3.6.8-11.4 3.8-23.6 5.4-30.6.8-3.5 3.3-6.4 6.6-7.7l12-3.6s33.9-9.1 80-18.9c46.5-10 81.6-16.1 90.4-16.1"/>
		<path d="M80.6 61.1c12-3.2 30.3-7.5 56.1-12.4 41.9-8 59.5-10.4 65.4-11.1 1.2-.1 2.1.9 1.8 2.1l-9.4 33.9c-.9 3.1-3.7 5.3-6.9 5.3H63.7c-2.3 0-4-2.1-3.5-4.3l1.1-5.3c.3-1.6 1.5-2.9 3.1-3.4 2.6-.8 7.2-2.2 14.2-4.1M43.9 65.4s-7.3 25.8-4.1 81.6M53.7 150.7c-11.5-3.1-23.4-6.8-33-10.8M94.1 160.1S82 157.8 66.5 154M233 29.5v54.7c0 20.5 40 59.3 59.5 77.6M214.6 161.8h283.8M429.2 161.8l31.5-86.9"/>
		<circle cx="553.4" cy="168.2" r="48.4"/>
		<circle cx="154.1" cy="163.8" r="52.8"/>
		<circle cx="154.1" cy="163.8" r="34.2"/>
		<circle cx="553.4" cy="168.2" r="32.7"/>
		<path d="M685.1 143.3l-79.6 15.3M653 142.7l-.6 6.9M655.7 97.6l-.9 25.7-.2 2M685.1 141.2l-32.3 3.8"/>
		<circle cx="154.1" cy="163.8" r="12.6"/>
		<circle cx="553.4" cy="168.2" r="13.1"/>
		<path d="M553.4 155.1v-19.6M550.6 155.4l-4-19.2M548 156.2l-7.9-17.8M545.7 157.6l-11.5-15.8M543.6 159.4l-14.5-13.1M542 161.6l-16.9-9.7M540.9 164.1l-18.6-6M540.4 166.8l-19.5-2M540.4 169.6l-19.5 2M540.9 172.2l-18.6 6.1M542 174.7l-16.9 9.8M543.6 176.9L529.1 190M545.7 178.8l-11.5 15.8M548 180.1l-7.9 17.9M550.6 181l-4 19.1M553.4 181.3v19.5M556.1 181l4.1 19.1M558.7 180.1l7.9 17.9M561 178.8l11.6 15.8M563.1 176.9l14.5 13.1M564.7 174.7l16.9 9.8M565.8 172.2l18.6 6.1M566.4 169.6l19.4 2M566.4 166.8l19.4-2M565.8 164.1l18.6-6M564.7 161.6l16.9-9.7M563.1 159.4l14.5-13.1M561 157.6l11.6-15.8M558.7 156.2l7.9-17.8M556.1 155.4l4.1-19.2M154.1 151.1v-21.5M151.5 151.4l-4.5-21.1M148.9 152.2l-8.7-19.7M146.7 153.5L134 136.1M144.7 155.3l-16-14.4M143.1 157.4l-18.6-10.7M142.1 159.8l-20.5-6.6M141.5 162.4l-21.4-2.2M141.5 165.1l-21.4 2.2M142.1 167.7l-20.5 6.6M143.1 170.1l-18.6 10.7M144.7 172.2l-16 14.4M146.7 174L134 191.4M148.9 175.3l-8.7 19.7M151.5 176.1l-4.5 21.1M154.1 176.4v21.5M156.7 176.1l4.5 21.1M159.2 175.3L168 195M161.5 174l12.7 17.4M163.5 172.2l16 14.4M165 170.1l18.7 10.7M166.1 167.7l20.5 6.6M166.7 165.1l21.4 2.2M166.7 162.4l21.4-2.2M166.1 159.8l20.5-6.6M165 157.4l18.7-10.7M163.5 155.3l16-14.4M161.5 153.5l12.7-17.4M159.2 152.2l8.8-19.7M156.7 151.4l4.5-21.1M70.3 113.7l-53.8-.9M114 114.4l-29.3-.5M193.3 115.7l325.6 5.4M637.3 123l-49.8-.8M682.7 123.7l-39.1-.6"/>
		<path d="M382.3 82.4l-42.4-21.1c-4.8-2.4-10.1-3.7-15.5-3.7h-27.5c-4.5 0-8.8 2.2-11.4 5.8l-13.8 19"/>
		<path d="M408.6 82.4H252.5c-4.2 0-7.6-3.5-7.5-7.7l1.2-33.3c.1-2.8 2.4-5 5.1-5h82.5c9.6 0 19.1 2.2 27.7 6.4l3 1.5 51.5 25M424.8 82.4h8.9c.8 0 1.4-.6 1.4-1.4v-2.7c0-.5-.3-1-.8-1.3l-9.5-3.6"/>
		<path d="M413.7 85h11.1V69.2h-11.1c-3.5 0-6.4 2.9-6.4 6.4v3c0 3.5 2.9 6.4 6.4 6.4z"/>
		<path d="M274.5 117l21.2.4v5.1c0 1.4-1.1 2.5-2.5 2.4l-16.4-.3c-1.3 0-2.4-1.1-2.4-2.4V117z"/>
		<path d="M24.8 78.8l-10.5-2.7-6.4-19.5L23.3 1c.2-.6.9-.9 1.5-.6l73.1 44.2 20.3 3.1M214.3 25.8v42.4c0 8.9-7.2 16.1-16.1 16.1h-84c-18.7 0-35.7 11-43.4 28.1l-22.5 50.3c-.2.5 0 1.1.5 1.3l10 4.5c.5.2 1.1 0 1.3-.5l22.5-50.3c5.6-12.4 17.9-20.4 31.5-20.4h84c16 0 29.1-13 29.1-29.1V25.8c0-.6-.4-1-1-1h-11c-.4 0-.9.4-.9 1z"/>
		<path class="about__trinket-stroke--thick" d="M197.8 97.2c2.7 7.1 5.7 14 9.2 20.8l26 51c2.5 4.9 7.6 8 13.2 8h35.7M191.4 77.6l2 6.6M408.1 177h64c10 0 18.7-6.8 21-16.5l4.8-18.7c4.5-17.5 17-31.9 33.7-38.7 14-5.7 29.6-5.6 43.5.2l19.9 8.3c7 2.9 14.4 4.4 22 4.4h1.8c4.2 0 8.4-1.3 11.8-3.8 1.1-.8 2.3-1.2 3.7-1.2 3.4 0 6.2 2.8 6.2 6.2v4.6"/>
		<path d="M405.7 179.4H284.2c-1.3 0-2.4-1.1-2.4-2.4 0-1.3 1.1-2.4 2.4-2.4h121.5c1.3 0 2.4 1.1 2.4 2.4 0 1.3-1.1 2.4-2.4 2.4zM236.1 29.3v-6.6h-2.3v-1.5h-3.7v1.5h-17.7v7.7"/>
		<path d="M223.7 13.9h19.1c2 0 3.7 1.6 3.7 3.7 0 2-1.6 3.7-3.7 3.7h-19.1c-2 0-3.7-1.6-3.7-3.7.1-2.1 1.7-3.7 3.7-3.7z"/>
		<path stroke-linecap="round" d="M7.9 56.6l-7.7 1M13.4 36.6l-7.6 1M19 16.6l-7.6 1"/>
		<path d="M656.6 139.1h31.2c1.1 0 2-.9 2-2V129c0-1.1-.9-2-2-2h-31.2v12.1z"/>
		<path d="M286.2 174.6v4.8M403.7 179.4v-4.8M96 78.6H78.5V62.1c0-.6.4-1 1-1H95c.6 0 1 .4 1 1v16.5zM113.6 78.6H96V62.1c0-.6.4-1 1-1h15.5c.6 0 1 .4 1 1v16.5z"/>
		<path d="M188.9 68.3h-70.5c-1.4 0-2.5-1.1-2.5-2.5v-.1c0-1.4 1.1-2.5 2.5-2.5h70.5c1.4 0 2.5 1.1 2.5 2.5v.1c0 1.4-1.1 2.5-2.5 2.5zM188.9 75.6h-70.5c-1.4 0-2.5-1.1-2.5-2.5V73c0-1.4 1.1-2.5 2.5-2.5h70.5c1.4 0 2.5 1.1 2.5 2.5v.1c0 1.4-1.1 2.5-2.5 2.5z"/>
		<path d="M186.7 75.6v3.2M186.7 68.3v2.2M202.4 44.8h-15.7v18.3"/>
		<path d="M177 63.1h5.2v-7.6c0-1.4-1.2-2.6-2.6-2.6-1.4 0-2.6 1.2-2.6 2.6v7.6zM169.3 63.1h5.2v-7.6c0-1.4-1.2-2.6-2.6-2.6-1.4 0-2.6 1.2-2.6 2.6v7.6zM161.7 63.1h5.2v-7.6c0-1.4-1.2-2.6-2.6-2.6-1.4 0-2.6 1.2-2.6 2.6v7.6zM154.1 63.1h5.2v-7.6c0-1.4-1.2-2.6-2.6-2.6-1.4 0-2.6 1.2-2.6 2.6v7.6z"/>
		<path d="M654.6 125.3h-9.7l-2-3.6H638l-2 3.6h-9.6c-1.1 0-2 .9-2 2v13.4c0 1.1.9 2 2 2h28.1c1.1 0 2-.9 2-2v-13.4c.1-1.1-.8-2-1.9-2z"/>
	</g>

	<g class="about__trinket-fill">
		<circle class="st2" cx="553.4" cy="168.2" r="4.8"/>
		<circle class="st2" cx="154.1" cy="163.8" r="4.9"/>
		<path class="st2" d="M227.3 66.9h-13c-.8 0-1.5-.7-1.5-1.5s.7-1.5 1.5-1.5h13c.8 0 1.5.7 1.5 1.5s-.6 1.5-1.5 1.5zM186.6 97.2v-13c0-.8.7-1.5 1.5-1.5s1.5.7 1.5 1.5v13c0 .8-.7 1.5-1.5 1.5-.9 0-1.5-.7-1.5-1.5zM110.6 97.2v-13c0-.8.7-1.5 1.5-1.5s1.5.7 1.5 1.5v13c0 .8-.7 1.5-1.5 1.5-.9 0-1.5-.7-1.5-1.5zM85 112.6l-11.9-5.3c-.8-.3-1.1-1.2-.8-2 .3-.8 1.2-1.1 2-.8l11.9 5.3c.8.3 1.1 1.2.8 2-.4.8-1.3 1.1-2 .8zM67.8 150.9l-11.9-5.3c-.8-.3-1.1-1.2-.8-2 .3-.8 1.2-1.1 2-.8l11.9 5.3c.8.3 1.1 1.2.8 2-.4.8-1.3 1.2-2 .8z"/>
	</g>

	<g class="about__delorean-hook">
		<g class="about__trinket-stroke">
			<path pathLength="1" class="about__trinket-stroke--round about__trinket-stroke--thick" d="M-59.05,-232.38l-30,-33.5c-6.3,4.4,-15.1,2.8,-19.5,-3.6s-2.8,-15.1,3.5,-19.5c4.6,-3.2,10.4,-3.3,15,-0.7"/>
			<polyline pathLength="1" points="-59.05 -232.38 179.987 35.289 179.997 35.31" />
			<path pathLength="1" d="M-59.05-232.38l12.4178,4.0934a13.7276,13.7276,0,0,1,9.2953,11.12l2.5008,17.73a34.7626,34.7626,0,0,0,6.1233,15.3349l3.3925,4.7551q.8192,1.1481,1.7292,2.2269l28.45,33.72q.6687.7926,1.2892,1.624L25.1613-116.3A103.3814,103.3814,0,0,0,37.21-102.8033l24.2065,22.75a34.7632,34.7632,0,0,1,4.9891,5.8574L81.87-51.3288a34.7625,34.7625,0,0,0,9.1562,9.2094l13.1454,9.001a34.7647,34.7647,0,0,1,8.69,8.5377L129.4-1.2424a51.1689,51.1689,0,0,0,28.4158,19.816l9.5429,2.5756" />
		</g>

		<g class="about__trinket-fill">
			<path d="M119.34,-36.48l-10.5,9.5c-0.7,0.6,-1.7,0.6,-2.3,-0.1c-0.6,-0.7,-0.6,-1.7,0.1,-2.3l10.5,-9.5c0.7,-0.6,1.7,-0.6,2.3,0.1c0.7,0.7,0.6,1.7,-0.1,2.3zm-43.9,-48.8l-10.5,9.5c-0.7,0.6,-1.7,0.6,-2.3,-0.1c-0.6,-0.7,-0.6,-1.7,0.1,-2.3l10.5,-9.5c0.7,-0.6,1.7,-0.6,2.3,0.1c0.6,0.7,0.5,1.7,-0.1,2.3zm-58.7,-65.2l-10.5,9.5c-0.7,0.6,-1.7,0.6,-2.3,-0.1c-0.6,-0.7,-0.6,-1.7,0.1,-2.3l10.5,-9.5c0.7,-0.6,1.7,-0.6,2.3,0.1c0.6,0.7,0.6,1.7,-0.1,2.3zm-31.1,-34.5l-10.6,9.4c-0.7,0.6,-1.7,0.6,-2.3,-0.1c-0.6,-0.7,-0.6,-1.7,0.1,-2.3l10.5,-9.5c0.7,-0.6,1.7,-0.6,2.3,0.1c0.7,0.7,0.6,1.7,0,2.4z"/>
		</g>
	</g>
</svg>