<svg xmlns="http://www.w3.org/2000/svg" width="225.3" height="229.2" viewBox="0 0 225.3 229.2" class="about__headphones" aria-label="Over-ear headphones">
    <g class="about__trinket-strokes">
        <path d="M6.2 93.4c-.4 6.3-.5 12.9 0 19.3M11.4 93.6c-.2 3-.3 5.2-.3 8.5 0 .2.1.4.2.6l4.5 9"/>
        <circle cx="12.2" cy="122.6" r="11.5"/>
        <circle cx="12.2" cy="122.6" r="8.2"/>
        <path d="M15.7 133.6l5.7 10.8 17.7 23.3c2.1 2.9 6.3 3.3 8.9.9 2.3-2.1 2.7-5.6.8-8.1l-18.4-24.3-8.6-7.4"/>
        <path d="M30.3 156.2c-1.7 11-1.7 20.1-1.7 20.1s0 21.1 6 37.6c.3.8 1 1.5 1.8 1.7l2.1.7s.1 2.4 1.6 2.6c1.5.3 9.9 1.7 9.9 1.7s3.4.6 5.9 5.3h4.2s-2.2-19.5-2.2-49.6 2.2-49.6 2.2-49.6h-4.2c-2.5 4.7-5.9 5.3-5.9 5.3s-8.4 1.5-9.9 1.7c-1.5.3-1.6 2.6-1.6 2.6l-2.1.7c-.8.3-1.5.9-1.8 1.7-.3.7-.5 1.4-.7 2.1"/>
        <path d="M54.1 223.1s-2-28.2-2-46.9 2-46.9 2-46.9M60.3 224.2s4 4.3 9.1 4.3c9.2 0 9.7-13 9.7-52.3s-.5-52.2-9.7-52.2c-5.1 0-9.1 4.3-9.1 4.3M112.7.6c47.6 0 106.2 35.8 109 89.1.1 2.1-1.7 3.9-3.9 3.9H212c-1.5 0-2.8-1.2-2.9-2.7C207.3 42 155.1 9 112.7 9S18 42 16.2 90.9c-.1 1.5-1.3 2.7-2.9 2.7H7.6c-2.2 0-4-1.8-3.9-3.9C6.4 36.5 65 .6 112.7.6z"/>
        <path d="M219.1 93.4c.4 6.3.5 12.9 0 19.3M213.9 93.6c.2 3 .3 5.2.3 8.5 0 .2-.1.4-.2.6l-4.5 9"/>
        <circle cx="213.2" cy="122.6" r="11.5"/>
        <circle cx="213.2" cy="122.6" r="8.2"/>
        <path d="M203.5 128.9l-8.6 7.4-18.4 24.3c-1.9 2.5-1.5 6 .8 8.1 2.7 2.4 6.8 2 8.9-.9l17.7-23.3 5.7-10.8"/>
        <path d="M195 156.2c1.7 11 1.7 20.1 1.7 20.1s0 21.1-6 37.6c-.3.8-1 1.5-1.8 1.7l-2.1.7s-.1 2.4-1.6 2.6c-1.5.3-9.9 1.7-9.9 1.7s-3.4.6-5.9 5.3H165s2.2-19.5 2.2-49.6-2.2-49.6-2.2-49.6h4.2c2.5 4.7 5.9 5.3 5.9 5.3s8.4 1.5 9.9 1.7c1.5.3 1.6 2.6 1.6 2.6l2.1.7c.8.3 1.5.9 1.8 1.7.3.7.5 1.4.7 2.1"/>
        <path d="M171.2 223.1s2-28.2 2-46.9-2-46.9-2-46.9M165 224.2s-4 4.3-9.1 4.3c-9.2 0-9.7-13-9.7-52.3s.5-52.3 9.7-52.3c5.1 0 9.1 4.3 9.1 4.3"/>
    </g>
    <g class="about__trinket-fills">
        <path d="M55.8 26.9l4.6 4.8c2.2 2.3 5.9 2.9 8.7 1.3 7.8-4.4 24.3-12.3 43.5-12.3s35.7 7.9 43.5 12.3c2.8 1.6 6.5 1.1 8.7-1.3l4.6-4.8S143.9 9 112.6 9 55.8 26.9 55.8 26.9z"/>
    </g>
</svg>