<svg xmlns="http://www.w3.org/2000/svg" width="204.8" height="54.4" viewBox="0 0 204.8 54.4" class="about__trinket about__keyboard" aria-label="MIDI keyboard">
    <g class="about__trinket-strokes">
        <rect x="0.5" y="0.5" width="203.8" height="53.4" rx="3.25"/>
        <path d="M9.3 12.3h186.1v41.6H9.3z"/>
        <path d="M189.3 16v34.9c0 .6.5 1.1 1.1 1.1h4c.6 0 1.1-.5 1.1-1.1V16M47.9 38.9v12c0 .6.5 1.1 1.1 1.1h4c.6 0 1.1-.5 1.1-1.1V16M41.4 38.9v12c0 .6.5 1.1 1.1 1.1h4c.6 0 1.1-.5 1.1-1.1v-12M35 38.9v12c0 .6.5 1.1 1.1 1.1h4c.6 0 1.1-.5 1.1-1.1v-12M28.6 16v34.9c0 .6.5 1.1 1.1 1.1h4c.6 0 1.1-.5 1.1-1.1v-12M22.2 38.9v12c0 .6.5 1.1 1.1 1.1h4c.6 0 1.1-.5 1.1-1.1V16M15.7 38.9v12c0 .6.5 1.1 1.1 1.1h4c.6 0 1.1-.5 1.1-1.1v-12M9.3 16v34.9c0 .6.5 1.1 1.1 1.1h4c.6 0 1.1-.5 1.1-1.1v-12"/>
        <path  d="M92.9 38.9v12c0 .6.5 1.1 1.1 1.1h4c.6 0 1.1-.5 1.1-1.1V16M86.4 38.9v12c0 .6.5 1.1 1.1 1.1h4c.6 0 1.1-.5 1.1-1.1v-12M80 38.9v12c0 .6.5 1.1 1.1 1.1h4c.6 0 1.1-.5 1.1-1.1v-12M73.6 16v34.9c0 .6.5 1.1 1.1 1.1h4c.6 0 1.1-.5 1.1-1.1v-12M67.2 38.9v12c0 .6.5 1.1 1.1 1.1h4c.6 0 1.1-.5 1.1-1.1V16M60.7 38.9v12c0 .6.5 1.1 1.1 1.1h4c.6 0 1.1-.5 1.1-1.1v-12M54.3 16v34.9c0 .6.5 1.1 1.1 1.1h4c.6 0 1.1-.5 1.1-1.1v-12M137.9 38.9v12c0 .6.5 1.1 1.1 1.1h4c.6 0 1.1-.5 1.1-1.1V16M131.4 38.9v12c0 .6.5 1.1 1.1 1.1h4c.6 0 1.1-.5 1.1-1.1v-12M125 38.9v12c0 .6.5 1.1 1.1 1.1h4c.6 0 1.1-.5 1.1-1.1v-12M118.6 16v34.9c0 .6.5 1.1 1.1 1.1h4c.6 0 1.1-.5 1.1-1.1v-12M112.2 38.9v12c0 .6.5 1.1 1.1 1.1h4c.6 0 1.1-.5 1.1-1.1V16M105.7 38.9v12c0 .6.5 1.1 1.1 1.1h4c.6 0 1.1-.5 1.1-1.1v-12M99.3 16v34.9c0 .6.5 1.1 1.1 1.1h4c.6 0 1.1-.5 1.1-1.1v-12M182.9 38.9v12c0 .6.5 1.1 1.1 1.1h4c.6 0 1.1-.5 1.1-1.1V16M176.4 38.9v12c0 .6.5 1.1 1.1 1.1h4c.6 0 1.1-.5 1.1-1.1v-12M170 38.9v12c0 .6.5 1.1 1.1 1.1h4c.6 0 1.1-.5 1.1-1.1v-12M163.6 16v34.9c0 .6.5 1.1 1.1 1.1h4c.6 0 1.1-.5 1.1-1.1v-12M157.2 38.9v12c0 .6.5 1.1 1.1 1.1h4c.6 0 1.1-.5 1.1-1.1V16M150.7 38.9v12c0 .6.5 1.1 1.1 1.1h4c.6 0 1.1-.5 1.1-1.1v-12M144.3 16v34.9c0 .6.5 1.1 1.1 1.1h4c.6 0 1.1-.5 1.1-1.1v-12"/>
        <path d="M9.4 16h186.1"/>
    </g>
    <g class="about__trinket-fills">
        <path d="M13.2 16v22.4c0 .3.2.5.5.5h2.9c.3 0 .5-.2.5-.5V16M20.5 16v22.4c0 .3.2.5.5.5h2.9c.3 0 .5-.2.5-.5V16M32 16v22.4c0 .3.2.5.5.5h2.9c.3 0 .5-.2.5-.5V16M39.3 16v22.4c0 .3.2.5.5.5h2.9c.3 0 .5-.2.5-.5V16M46.5 16v22.4c0 .3.2.5.5.5h3c.3 0 .5-.2.5-.5V16M58.2 16v22.4c0 .3.2.5.5.5h2.9c.3 0 .5-.2.5-.5V16M65.5 16v22.4c0 .3.2.5.5.5h2.9c.3 0 .5-.2.5-.5V16M77 16v22.4c0 .3.2.5.5.5h2.9c.3 0 .5-.2.5-.5V16M84.3 16v22.4c0 .3.2.5.5.5h2.9c.3 0 .5-.2.5-.5V16M91.5 16v22.4c0 .3.2.5.5.5h3c.3 0 .5-.2.5-.5V16M103.2 16v22.4c0 .3.2.5.5.5h2.9c.3 0 .5-.2.5-.5V16M110.5 16v22.4c0 .3.2.5.5.5h2.9c.3 0 .5-.2.5-.5V16"/>
        <path d="M122 16v22.4c0 .3.2.5.5.5h2.9c.3 0 .5-.2.5-.5V16M129.3 16v22.4c0 .3.2.5.5.5h2.9c.3 0 .5-.2.5-.5V16M136.5 16v22.4c0 .3.2.5.5.5h2.9c.3 0 .5-.2.5-.5V16"/>
        <path d="M148.2 16v22.4c0 .3.2.5.5.5h2.9c.3 0 .5-.2.5-.5V16"/>
        <path d="M155.5 16v22.4c0 .3.2.5.5.5h2.9c.3 0 .5-.2.5-.5V16"/>
        <path d="M167 16v22.4c0 .3.2.5.5.5h2.9c.3 0 .5-.2.5-.5V16M174.3 16v22.4c0 .3.2.5.5.5h2.9c.3 0 .5-.2.5-.5V16M181.5 16v22.4c0 .3.2.5.5.5h2.9c.3 0 .5-.2.5-.5V16"/>
    </g>
</svg>