<svg xmlns="http://www.w3.org/2000/svg" width="436.2" height="1484.1" viewBox="0 0 436.2 1484.1">
    <g class="about__lady-liberty-paths">
        <path pathlength="1" d="M84.6 445.6l37.5-11.5 36.5-40.5"/>
        <path pathlength="1" d="M95.1 507.1l21.2-50"/>
        <path pathlength="1" d="M89.1 532.1l52-35 23-51.5"/>
        <path pathlength="1" d="M266.1 456.1l-42.5 90.5-79.5 67.5-20 54"/>
        <path pathlength="1" d="M116.1 589.1l108-100.2 19.6-34.6"/>
        <path pathlength="1" d="M133.1 697.1l63.2-82.2 27.3-68.3"/>
        <path pathlength="1" d="M266.1 513.1l-31 154-51.8 156.7"/>
        <path pathlength="1" d="M212.1 803.1l54-72"/>
        <path pathlength="1" d="M266.1 890.1l90-48-58-341-32-45-60-15-47.5-47.5-3.9-32.1-16.2-18.9-5.4 41-34.5 10-5.5-35.5-19.5 24.5-6.5 45.5 17.5 17.5 10.5 61.5-6 25 27 27v30l-17 42 6 37h19l9 29-29 29 18 59-16 94 106-76-55 185 135-71-26-27v-434"/>
        <path pathlength="1" d="M309 565.1l-42.9 116"/>
        <path pathlength="1" d="M387.3 627.3l-35.4 61.3-24.3-14"/>
        <path pathlength="1" d="M313.8 593.5l39.3-68.1 69.8 40.3-13.6 23.4"/>
        <path pathlength="1" d="M50.1 1068.1h336v36h-336z"/>
        <path pathlength="1" d="M15.5 1104.1h405.1v50.6H15.5z"/>
        <path pathlength="1" d="M3.5 1428.3h429.2v52.2H3.5z"/>
        <path pathlength="1" d="M341.2 850.1v218"/>
        <path pathlength="1" d="M308.8 867.4v200.7"/>
        <path pathlength="1" d="M276.4 925.4v142.7"/>
        <path pathlength="1" d="M244 942.4v125.7"/>
        <path pathlength="1" d="M211.6 959.5v108.6"/>
        <path pathlength="1" d="M179.2 976.5v91.6"/>
        <path pathlength="1" d="M121.6 868l-45.5 200.1"/>
        <path pathlength="1" d="M157.1 988.1l-24.7 80"/>
        <path pathlength="1" d="M93.1 358.1l5.7-174h27.8l11.9 158.5"/>
        <path pathlength="1" d="M243.7 454.3l-4.3-50.2"/>
        <path pathlength="1" d="M193.4 428.5l2.3-24.4"/>
        <path pathlength="1" d="M217.8 324.1s-4.8 26.3-28.9 26.3c-3.5 6.4-5.6 14.1-5.6 22.4 0 22.6 15.4 41 34.5 41 19 0 34.5-18.3 34.5-41 0-8.2-2.1-15.9-5.6-22.4-24.1.1-28.9-26.3-28.9-26.3"/>
        <path pathlength="1" d="M174.7 362.1l-3.6 44"/>
        <path pathlength="1" d="M251.2 382.8l9.9 28.8-20.2 10.1"/>
        <path pathlength="1" d="M255.8 414.3l10.3 41.8"/>
        <path pathlength="1" d="M263.9 358.3s-11.7-34.1-46.2-34.1-46.2 34.1-46.2 34.1"/>
        <path pathlength="1" d="M252.2 372.8l11.7-14.6 7.5-9.4s-12.8-39.3-53.7-39.3-53.7 39.3-53.7 39.3l7.5 9.4 11.7 14.6"/>
        <path pathlength="1" d="M217.8 309.5v14.6"/>
        <path pathlength="1" d="M235.7 312.3l-2.6 14.4"/>
        <path pathlength="1" d="M251.5 321l-4.8 13.3"/>
        <path pathlength="1" d="M263.7 334.1l-6.6 11.5"/>
        <path pathlength="1" d="M199.8 312.3l2.5 14.4"/>
        <path pathlength="1" d="M183.8 321.1l4.8 13.3"/>
        <path pathlength="1" d="M171.6 334.4l6.6 11.5"/>
        <g stroke-linejoin="round">
            <path pathlength="1" d="M223.4 309.5l-5.6-54.3-5.7 54.3"/>
            <path pathlength="1" d="M195 314.2l-30.9-45.1 21.1 50.9"/>
            <path pathlength="1" d="M137.1 324l27 24.8"/>
            <path pathlength="1" d="M169.1 338.2l-32.3-18.7"/>
            <path pathlength="1" d="M240.5 314.2l30.9-45.1-21.1 50.9"/>
            <path pathlength="1" d="M266.4 338.2l44.8-25.9-39.8 36.5"/>
        </g>
        <path pathlength="1" d="M372.7 652.5l25.7-15.6 24.5-38.7-35.6-23.8-22 38.2 22 14.7z"/>
        <path pathlength="1" d="M335.3 556.2l-30.2-13.6"/>
        <path pathlength="1" d="M89.5 119.2l-21.4-8.1V88.6h74v22.5l-21.4 8.1"/>
        <path pathlength="1" d="M89.5 119.2h31.2v18.3l-5.6-.9v38.6l5.6 1.9v7H89.5v-10.9h15.7v-38.1H89.5z"/>
        <path pathlength="1" d="M81.1 135.1h24.1v38H81.1z"/>
        <path pathlength="1" d="M115.1 136.6l11.3 1.8 7.7 16.7-7.5 24-11.5-3.9z"/>
        <path pathlength="1" class="about__lady-liberty-fire" d="M105.1 61.6l-7-17.9 13-34.6 21 46.5-13.5 22.7H91.4L78.3 55.6l16.8-34.3 8.1 8.8"/>
        <path pathlength="1" d="M118.6 78.3v10.3H91.4V78.3"/>
        <path pathlength="1" d="M50.1 1154.7h336v273.6h-336z"/>
    </g>
</svg>