<svg xmlns="http://www.w3.org/2000/svg" viewBox="0 0 128 128"><path d="M97.126 51.407l10.015-10.014a2.933 2.933 0 0 0 .859-2.075V22.933a5.867 5.867 0 0 0-5.867-5.866H55.2a35.2 35.2 0 0 0-35.2 35.2v23.466a35.2 35.2 0 0 0 35.2 35.2h46.933a5.867 5.867 0 0 0 5.867-5.866V88.682a2.933 2.933 0 0 0-.86-2.074L97.127 76.591a2.933 2.933 0 0 0-2.074-.859h-7.585a2.933 2.933 0 0 0-2.934 2.934v8.8H55.2a11.733 11.733 0 0 1-11.733-11.734V52.267A11.733 11.733 0 0 1 55.2 40.533h29.333v8.8a2.933 2.933 0 0 0 2.934 2.934h7.585a2.933 2.933 0 0 0 2.074-.86z"/></svg>