<svg xmlns="http://www.w3.org/2000/svg" width="141.375" height="141.375" viewBox="0 0 141.375 141.375" class="about__trinket about__plugin" aria-label="Puzzle pieces">
    <g class="about__trinket-strokes about__trinket-strokes--thick">
        <path d="M75.832 88.976h-9.145V74.687h-7.289v1.145A15.572 15.572 0 0143.06 91.367c-8.356-.412-14.77-7.62-14.77-15.986v-.694H21v29.687a16 16 0 0016 16h29.688v-14.288h9.144a8.555 8.555 0 100-17.11z"/>
        <path d="M106.085 74.688v-9.145a8.555 8.555 0 00-17.109 0v9.144H74.688v7.29h1.144a15.572 15.572 0 0115.535 16.338c-.412 8.355-7.62 14.77-15.986 14.77h-.693v7.29h29.687a16 16 0 0016-16V74.686z"/>
        <path d="M65.993 28.29h.694V21H37a16 16 0 00-16 16v29.687H35.29v9.145a8.555 8.555 0 0017.11 0v-9.145h14.288v-7.29h-1.145A15.572 15.572 0 0150.007 43.06c.413-8.355 7.621-14.77 15.986-14.77z"/>
        <path class="about__plugin--extra-piece" d="M124.375 1H94.688v14.289h-9.145a8.555 8.555 0 100 17.109h9.145v14.289h7.289v-1.145a15.572 15.572 0 0116.338-15.535c8.355.413 14.77 7.621 14.77 15.986v.694h7.29V17a16 16 0 00-16-16z"/>
    </g>
</svg>