<svg xmlns="http://www.w3.org/2000/svg" width="3.3853em" height="3.87486em" viewBox="0 0 338.53 387.486" class="about__trinket about__shirt" aria-label="Custom t-shirt">
  <defs>
    <linearGradient id="shirt-syle-grad" gradientUnits="userSpaceOnUse" x1="99" y1="187.657" x2="99" y2="158.863">
      <stop offset="0" stop-color="#ddf2ff"/>
      <stop offset=".165" stop-color="#90d9f5"/>
      <stop offset=".332" stop-color="#1c92b9"/>
      <stop offset=".333" stop-color="#fffff5"/>
      <stop offset=".5" stop-color="#25a1ff"/>
      <stop offset="1" stop-color="#270030"/>
    </linearGradient>
  </defs>
  
  <g class="about__trinket-stroke--round">
    <g>
      <path d="M157.102 16.163a12.163 12.163 0 1112.163 12.163v13.17" class="about__trinket-stroke about__shirt-hook" fill="none" stroke-width="6"/>
      <path d="M154.797 54.105s2.039-12.608 14.468-12.608 14.468 12.608 14.468 12.608l21.942 9.628v12.655l-36.41-15.094-36.41 15.094V63.733z" class="about__trinket-stroke about__shirt-hanger" stroke-width="2"/>
    </g>

    <path d="M335.191 188.328l-42.993-83.271a24 24 0 00-11.322-10.805l-71.648-32.857a3.983 3.983 0 00-5.326 2.02c-2.942 6.862-11.674 20.483-34.637 20.483s-31.695-13.62-34.637-20.483a3.984 3.984 0 00-5.326-2.02L57.653 94.252a24 24 0 00-11.321 10.805l-42.994 83.27a12 12 0 004.105 15.556L52 232.958a12 12 0 0016.977-4.096l11.12-19.46v164.084a12 12 0 0012 12h154.335a12 12 0 0012-12V209.402l11.12 19.46a12 12 0 0016.977 4.096l44.557-29.076a12 12 0 004.105-15.554z" fill="#2b3990" class="about__trinket-stroke about__trinket-stroke--thick"/>

    <path fill="#35163a" stroke="#ffffff" stroke-miterlimit="10" d="M169.409 233.509l59.52-103.093H109.888l59.521 103.093z"/>

    <path d="M105.9 163.7l4.8-4.8h14.4l4.8 4.8v3.6h-9.6v-1.2h-4.8v3.6h9.6l4.8 4.8v8.4l-4.8 4.8h-14.4l-4.8-4.8v-3.6h9.6v1.2h4.8v-3.6h-9.6l-4.8-4.8v-8.4zm49.7-4.8v7.2h-7.2v21.6h-9.6v-21.6h-7.2v-7.2h24zm8.9 18h-2.4l-4.8-4.8v-13.2h9.6v10.8h4.8v-10.8h9.6v13.2l-4.8 4.8h-2.4v10.8h-9.6v-10.8zm28.1-18v21.6H207v7.2h-19.2l-4.8-4.8v-24h9.6zm25.6 7.2v3.6h14.4v7.2h-14.4v3.6h14.4v7.2h-19.2l-4.8-4.8v-19.2l4.8-4.8h19.2v7.2h-14.4z" fill="url(#shirt-syle-grad)" stroke="#f0f0f0" stroke-width="1"/>

    <path d="M151.3 153.4l.4-.6c1.9 1.4 4.8-.9 1-.4-2.9-.7-.1-3 2.2-1.7-.3.9-.6.3-1.3.3-.7-.3-2.2.5-.8.8 4.8-.6 1.7 3.7-1.5 1.6zm11.4-2.1l.3-.5c-1.2-.7-3.5-.3-3.4 1.4 0 1.8 2.3 2.2 3.6 1.4l-.3-.5c-3.2 1.5-3.4-3.2-.2-1.8zm-17.3-.8l1.7 3.4c-.7 0-.7.1-1-.6h-2c-.3.7-.3.6-1 .6l1.6-3.4h.7zm.4 2.3l-.7-1.6-.7 1.6h1.4zm-7.5-1.5l.3-.5c-1.2-.7-3.5-.3-3.4 1.4 0 1.8 2.3 2.2 3.6 1.4l-.3-.5c-3.2 1.5-3.4-3.2-.2-1.8zm45.5 2.6h.7v-3.4h-.7v3.4zm-14-3.4l1.7 3.4c-.7 0-.7.1-1-.6h-2c-.3.7-.3.6-1 .6l1.6-3.4h.7zm.4 2.3l-.7-1.6-.7 1.6h1.4zm31.2-.8h-1.8v.6h1.2c-.2.9-1.6 1-2.2.5-1.2-1.3.8-2.5 2-1.7l.3-.5c-1.2-.7-3.4-.3-3.4 1.4-.1 2.3 4.4 2.2 3.9-.3zm-9.2-.4c-.5-.2-2.3-1.4-2.8-1.1v3.4h.7v-2.7l2.1 1.1v1.6h.7v-3.4h-.7v1.1zm-12.9.6c0 1.8-2.1 1.8-3.4 1.7v-3.4c1.3-.1 3.4-.1 3.4 1.7zm-2.7-1.1v2.2h.7c2.1-.2 1.5-2.7-.7-2.2z" fill="#ffffff" stroke="#191517" stroke-width=".5" stroke-miterlimit="6" paint-order="stroke"/>
    
    <path d="M152.693 193.79c-.15.285-.33.453-.659.156-2.431-1.625 2.754-6.506 1.857-7.76-1.018-.947-8.385 4.368-8.534 8.126.058 3.54 9.336 3.096 5.09 7.937-1.123 2.393-9.456 3.173-11.17-2.031 3.106-1.137 4.828 2.768 8.205 2.327 1.39.001 2.917-1.277 1.797-2.276-10.108-3.431-5.941-11.37.989-15.13 2.51-1.606 4.76-.448 5.36 2.041.353 2.528-2.285 4.718-2.935 6.61zm44.438-6.252c-.21 2.776.36 5.055.27 7.13.401 3.91-4.188 6.602-6.853 2.802-1.405 2.233-5.837 4.11-6.507.133-1.964 2.907-8.28 5.129-9.352.65-1.825 2.954-8.078 5.531-9.503 1.244-1.755 3.734-8.497 4.647-6.355-1.167.989-3.003 3.594-6.377 3.115-6.599-3.619.433-6.841 8.8-8.833 11.332-1.799-3.289 7.4-18.844 10.298-20.732 1.02 3.035-2.627 6.835-4.43 10.325 1.228-1.32 2.785-2.464 3.593-2.455 5.11 1.364-5.256 9.898-1.108 11.4 4.061-1.356 5.324-14.123 10.901-12.284 5.07 1.549-.815 10.245-4.762 6.971-.958 2.85-.24 4.666 1.348 4.597 6.07.058 7.276-14.433 12.996-12.523 5.07 1.55-.815 10.246-4.761 6.972-2.386 8.325 6.547 3.402 7.366-.884.629-1.56 1.887-4.2 3.174-6.694a2.249 2.249 0 01-1.946-.585c-.507-1.141 2.141-.557 2.814-1 1.225-1.693 1.793-4.597 2.995-4.01.33.805.33 1.794-.39 3.422a1.69 1.69 0 011.857.714c.375 1.07-1.973.47-2.694.957-.815 2.358-7.113 10.325-3.415 11.869 3.379-.044 3.702-7.277 4.552-5.724.759 1.482 3.515-5.935 4.581-7.194 1.837-1.664 2.166-.095 1.049 1.333zm-19.674 7.11c2.215 1.41 5.375-4.013 4.762-5.116-.61-.621-3.726 2.332-4.762 5.116zm-9.582.954c2.215 1.41 5.375-4.013 4.761-5.116-.61-.62-3.725 2.332-4.761 5.117zm27.07-5.062a60.197 60.197 0 01-3.114 5.161c2.744 6.674 3.883-1.497 3.114-5.16z" fill="#c51451" stroke="#742e7a" stroke-miterlimit="10" stroke-width=".25"/>
  </g>
</svg>