<svg xmlns="http://www.w3.org/2000/svg" width="338.53" height="387.486" viewBox="0 0 338.53 387.486" class="about__trinket about__shirt" aria-label="Custom t-shirt">
  <defs>
    <linearGradient id="shirt-syle-grad" x1="0" y1="328.249" x2="0" y2="299.455" gradientUnits="userSpaceOnUse">
      <stop offset="0" stop-color="#ddf2ff"/>
      <stop offset="0.332" stop-color="#21b5e6"/>
      <stop offset="0.333" stop-color="#ffffff"/>
      <stop offset="0.5" stop-color="#25a1ff"/>
      <stop offset="1" stop-color="#270030"/>
    </linearGradient>
  </defs>
  <g stroke-linecap="round" stroke-linejoin="round">
    <g fill="none">
      <path d="M157.102 16.163a12.163 12.163 0 1112.163 12.163v13.17" stroke="#000" stroke-width="8"/>
      <path d="M157.102 16.163a12.163 12.163 0 1112.163 12.163v13.17" stroke="#bcbec0" stroke-width="2"/>
    </g>
    <path d="M154.797 54.105s2.039-12.608 14.468-12.608 14.468 12.608 14.468 12.608l21.942 9.628v12.655l-36.41-15.094-36.41 15.094V63.733z" fill="#f7941d" stroke="#000" stroke-width="4"/>
  </g>
  <path d="M335.191 188.328l-42.993-83.271a24 24 0 00-11.322-10.805l-71.648-32.857a3.983 3.983 0 00-5.326 2.02c-2.942 6.862-11.674 20.483-34.637 20.483s-31.695-13.62-34.637-20.483a3.984 3.984 0 00-5.326-2.02L57.653 94.252a24 24 0 00-11.321 10.805l-42.994 83.27a12 12 0 004.105 15.556L52 232.958a12 12 0 0016.977-4.096l11.12-19.46v164.084a12 12 0 0012 12h154.335a12 12 0 0012-12V209.402l11.12 19.46a12 12 0 0016.977 4.096l44.557-29.076a12 12 0 004.105-15.554z" fill="#2b3990" stroke="#000" stroke-linecap="round" stroke-linejoin="round" stroke-width="4"/>
  <path fill="#35163a" stroke="#ffffff" stroke-miterlimit="10" d="M169.409 233.509l59.52-103.093H109.888l59.521 103.093z"/>
  <path d="M892.097 304.293l4.799-4.8h14.397l4.8 4.8v3.599h-9.599v-1.2h-4.799v3.599h9.598l4.8 4.8v8.397l-4.8 4.8h-14.397l-4.799-4.8v-3.599h9.598v1.2h4.8v-3.599h-9.599l-4.799-4.8zm49.677-4.8v7.2h-7.198v21.595h-9.598v-21.596h-7.199v-7.199zm8.886 17.997h-2.4l-4.799-4.8v-13.197h9.599v10.798h4.8v-10.798h9.597v13.198l-4.799 4.799h-2.4v10.798h-9.622zm28.082-17.997v21.596h14.397v7.199h-19.196l-4.8-4.8v-23.995zm25.682 7.2v3.598h14.397v7.199h-14.397v3.6h14.397v7.198h-19.196l-4.8-4.8v-19.195l4.8-4.8h19.196v7.2z" transform="translate(-786.177 -140.592)" stroke="#f0f0f0" stroke-miterlimit="10" stroke-width=".5" fill="url(#shirt-syle-grad)"/>
  <path d="M152.715 151.854c-1.383-.235.09-1.052.798-.775.729.013 1.01.622 1.337-.288-2.355-1.296-5.128 1.067-2.248 1.725 3.837-.497.948 1.782-.965.37l-.37.562c3.234 2.017 6.32-2.206 1.448-1.594z" fill="none" stroke="#191517" stroke-miterlimit="6" stroke-width=".5"/>
  <path d="M152.715 151.854c-1.383-.235.09-1.052.798-.775.729.013 1.01.622 1.337-.288-2.355-1.296-5.128 1.067-2.248 1.725 3.837-.497.948 1.782-.965.37l-.37.562c3.234 2.017 6.32-2.206 1.448-1.594z" fill="#f2f2f2"/>
  <path d="M162.745 151.31l.319-.526c-1.223-.73-3.47-.322-3.445 1.39-.046 1.767 2.315 2.193 3.554 1.392l-.32-.525c-3.15 1.537-3.383-3.132-.108-1.732z" fill="none" stroke="#191517" stroke-miterlimit="6" stroke-width=".5"/>
  <path d="M162.745 151.31l.319-.526c-1.223-.73-3.47-.322-3.445 1.39-.046 1.767 2.315 2.193 3.554 1.392l-.32-.525c-3.15 1.537-3.383-3.132-.108-1.732z" fill="#f2f2f2"/>
  <path d="M144.645 150.485l-1.605 3.418c.715-.011.711.16.995-.575h1.997c.285.716.287.572 1.001.575l-1.653-3.418zm-.346 2.272l.72-1.553.74 1.553z" fill="none" stroke="#191517" stroke-miterlimit="6" stroke-width=".5"/>
  <path d="M144.645 150.485l-1.605 3.418c.715-.011.711.16.995-.575h1.997c.285.716.287.572 1.001.575l-1.653-3.418zm-.346 2.272l.72-1.553.74 1.553z" fill="#f2f2f2"/>
  <path d="M138.344 151.31l.32-.526c-1.223-.73-3.47-.322-3.445 1.39-.046 1.767 2.315 2.193 3.554 1.392l-.32-.525c-3.15 1.537-3.383-3.132-.109-1.732z" fill="none" stroke="#191517" stroke-miterlimit="6" stroke-width=".5"/>
  <path d="M138.344 151.31l.32-.526c-1.223-.73-3.47-.322-3.445 1.39-.046 1.767 2.315 2.193 3.554 1.392l-.32-.525c-3.15 1.537-3.383-3.132-.109-1.732z" fill="#f2f2f2"/>
  <path fill="none" stroke="#191517" stroke-miterlimit="6" stroke-width=".5" d="M183.837 150.485h.698v3.418h-.698z"/>
  <path fill="#f2f2f2" d="M183.837 150.485h.698v3.418h-.698z"/>
  <g>
    <path d="M169.045 150.485l-1.605 3.418c.715-.011.711.16.995-.575h1.997c.285.716.287.572 1.001.575l-1.653-3.418zm-.346 2.272l.72-1.553.74 1.553z" fill="none" stroke="#191517" stroke-miterlimit="6" stroke-width=".5"/>
    <path d="M169.045 150.485l-1.605 3.418c.715-.011.711.16.995-.575h1.997c.285.716.287.572 1.001.575l-1.653-3.418zm-.346 2.272l.72-1.553.74 1.553z" fill="#f2f2f2"/>
  </g>
  <g>
    <path d="M201.367 151.972h-1.817v.57h1.194c-.176.934-1.57.986-2.178.464-1.25-1.296.808-2.508 1.99-1.719l.32-.525c-1.235-.695-3.422-.289-3.402 1.4-.08 2.442 4.423 2.349 3.893-.19z" fill="none" stroke="#191517" stroke-miterlimit="6" stroke-width=".5"/>
    <path d="M201.367 151.972h-1.817v.57h1.194c-.176.934-1.57.986-2.178.464-1.25-1.296.808-2.508 1.99-1.719l.32-.525c-1.235-.695-3.422-.289-3.402 1.4-.08 2.442 4.423 2.349 3.893-.19z" fill="#f2f2f2"/>
  </g>
  <g>
    <path d="M192.152 151.6c-.477-.222-2.262-1.357-2.823-1.115v3.418h.693v-2.677l2.13 1.109v1.568h.693v-3.418h-.693z" fill="none" stroke="#191517" stroke-miterlimit="6" stroke-width=".5"/>
    <path d="M192.152 151.6c-.477-.222-2.262-1.357-2.823-1.115v3.418h.693v-2.677l2.13 1.109v1.568h.693v-3.418h-.693z" fill="#f2f2f2"/>
  </g>
  <g>
    <path d="M175.863 150.485v3.418c1.322.07 3.45.081 3.403-1.723.062-1.82-2.091-1.744-3.403-1.695zm1.424 2.819h-.73v-2.216c2.224-.453 2.808 2.056.73 2.216z" fill="none" stroke="#191517" stroke-miterlimit="6" stroke-width=".5"/>
    <path d="M175.863 150.485v3.418c1.322.07 3.45.081 3.403-1.723.062-1.82-2.091-1.744-3.403-1.695zm1.424 2.819h-.73v-2.216c2.224-.453 2.808 2.056.73 2.216z" fill="#f2f2f2"/>
  </g>
  <path d="M152.693 193.79c-.15.285-.33.453-.659.156-2.431-1.625 2.754-6.506 1.857-7.76-1.018-.947-8.385 4.368-8.534 8.126.058 3.54 9.336 3.096 5.09 7.937-1.123 2.393-9.456 3.173-11.17-2.031 3.106-1.137 4.828 2.768 8.205 2.327 1.39.001 2.917-1.277 1.797-2.276-10.108-3.431-5.941-11.37.989-15.13 2.51-1.606 4.76-.448 5.36 2.041.353 2.528-2.285 4.718-2.935 6.61zm44.438-6.252c-.21 2.776.36 5.055.27 7.13.401 3.91-4.188 6.602-6.853 2.802-1.405 2.233-5.837 4.11-6.507.133-1.964 2.907-8.28 5.129-9.352.65-1.825 2.954-8.078 5.531-9.503 1.244-1.755 3.734-8.497 4.647-6.355-1.167.989-3.003 3.594-6.377 3.115-6.599-3.619.433-6.841 8.8-8.833 11.332-1.799-3.289 7.4-18.844 10.298-20.732 1.02 3.035-2.627 6.835-4.43 10.325 1.228-1.32 2.785-2.464 3.593-2.455 5.11 1.364-5.256 9.898-1.108 11.4 4.061-1.356 5.324-14.123 10.901-12.284 5.07 1.549-.815 10.245-4.762 6.971-.958 2.85-.24 4.666 1.348 4.597 6.07.058 7.276-14.433 12.996-12.523 5.07 1.55-.815 10.246-4.761 6.972-2.386 8.325 6.547 3.402 7.366-.884.629-1.56 1.887-4.2 3.174-6.694a2.249 2.249 0 01-1.946-.585c-.507-1.141 2.141-.557 2.814-1 1.225-1.693 1.793-4.597 2.995-4.01.33.805.33 1.794-.39 3.422a1.69 1.69 0 011.857.714c.375 1.07-1.973.47-2.694.957-.815 2.358-7.113 10.325-3.415 11.869 3.379-.044 3.702-7.277 4.552-5.724.759 1.482 3.515-5.935 4.581-7.194 1.837-1.664 2.166-.095 1.049 1.333zm-19.674 7.11c2.215 1.41 5.375-4.013 4.762-5.116-.61-.621-3.726 2.332-4.762 5.116zm-9.582.954c2.215 1.41 5.375-4.013 4.761-5.116-.61-.62-3.725 2.332-4.761 5.117zm27.07-5.062a60.197 60.197 0 01-3.114 5.161c2.744 6.674 3.883-1.497 3.114-5.16z" fill="#c51451" stroke="#742e7a" stroke-miterlimit="10" stroke-width=".25"/>
</svg>